<svg width="60" height="60" viewBox="0 0 60 60" fill="none" xmlns="http://www.w3.org/2000/svg">
<path fill-rule="evenodd" clip-rule="evenodd" d="M8.125 30C8.125 17.9188 17.9188 8.125 30 8.125C42.0812 8.125 51.875 17.9188 51.875 30C51.875 42.0812 42.0812 51.875 30 51.875C17.9188 51.875 8.125 42.0812 8.125 30ZM27.1246 23.2719C24.7906 25.192 23.2314 27.8926 22.7355 30.8739L21.0937 40.7442C20.7147 43.0229 23.3643 44.5526 25.1481 43.085L32.8751 36.728C35.209 34.8079 36.7683 32.1073 37.2642 29.126L38.906 19.2558C39.285 16.9771 36.6354 15.4473 34.8515 16.9149L27.1246 23.2719Z" fill="#525252"/>
<path d="M26.25 30C26.25 27.9289 27.9289 26.25 30 26.25C32.0711 26.25 33.75 27.9289 33.75 30C33.75 32.0711 32.0711 33.75 30 33.75C27.9289 33.75 26.25 32.0711 26.25 30Z" fill="#525252"/>
</svg>
