<svg width="75" height="75" viewBox="0 0 75 75" fill="none" xmlns="http://www.w3.org/2000/svg">
<path d="M9.00005 52.75C7.24442 54.5078 6.2583 56.8906 6.2583 59.375C6.2583 61.8594 7.24442 64.2422 9.00005 66C10.7579 67.7556 13.1407 68.7418 15.6251 68.7418C18.1094 68.7418 20.4922 67.7556 22.2501 66C23.9061 64.2228 24.8076 61.8722 24.7647 59.4435C24.7219 57.0147 23.738 54.6974 22.0203 52.9797C20.3027 51.2621 17.9853 50.2782 15.5566 50.2353C13.1278 50.1925 10.7772 51.094 9.00005 52.75V52.75ZM17.8438 61.5937C17.2554 62.1822 16.4572 62.5128 15.6251 62.5128C14.7929 62.5128 13.9948 62.1822 13.4063 61.5937C12.8179 61.0053 12.4873 60.2072 12.4873 59.375C12.4873 58.5428 12.8179 57.7447 13.4063 57.1563C13.6968 56.8634 14.0424 56.6309 14.4232 56.4722C14.8041 56.3136 15.2125 56.2319 15.6251 56.2319C16.0376 56.2319 16.446 56.3136 16.8269 56.4722C17.2077 56.6309 17.5533 56.8634 17.8438 57.1563C18.1367 57.4468 18.3692 57.7924 18.5278 58.1732C18.6865 58.554 18.7682 58.9625 18.7682 59.375C18.7682 59.7875 18.6865 60.196 18.5278 60.5768C18.3692 60.9576 18.1367 61.3032 17.8438 61.5937ZM15.6251 37.5C14.7962 37.5 14.0014 37.8292 13.4153 38.4153C12.8293 39.0013 12.5001 39.7962 12.5001 40.625C12.5001 41.4538 12.8293 42.2487 13.4153 42.8347C14.0014 43.4208 14.7962 43.75 15.6251 43.75C19.7691 43.75 23.7433 45.3962 26.6736 48.3265C29.6039 51.2567 31.2501 55.231 31.2501 59.375C31.2501 60.2038 31.5793 60.9987 32.1653 61.5847C32.7514 62.1708 33.5462 62.5 34.3751 62.5C35.2039 62.5 35.9987 62.1708 36.5848 61.5847C37.1708 60.9987 37.5001 60.2038 37.5001 59.375C37.5001 53.5734 35.1954 48.0094 31.093 43.907C26.9907 39.8047 21.4267 37.5 15.6251 37.5ZM15.6251 25C14.7962 25 14.0014 25.3292 13.4153 25.9153C12.8293 26.5013 12.5001 27.2962 12.5001 28.125C12.5001 28.9538 12.8293 29.7487 13.4153 30.3347C14.0014 30.9208 14.7962 31.25 15.6251 31.25C23.0843 31.25 30.238 34.2132 35.5124 39.4876C40.7869 44.7621 43.7501 51.9158 43.7501 59.375C43.7501 60.2038 44.0793 60.9987 44.6653 61.5847C45.2514 62.1708 46.0462 62.5 46.8751 62.5C47.7039 62.5 48.4987 62.1708 49.0848 61.5847C49.6708 60.9987 50.0001 60.2038 50.0001 59.375C49.9758 50.2625 46.3603 41.5268 39.9376 35.0625C33.4732 28.6397 24.7376 25.0242 15.6251 25V25ZM48.7813 26.2188C39.965 17.4611 28.0518 12.5318 15.6251 12.5C14.7962 12.5 14.0014 12.8292 13.4153 13.4153C12.8293 14.0013 12.5001 14.7962 12.5001 15.625C12.5001 16.4538 12.8293 17.2487 13.4153 17.8347C14.0014 18.4208 14.7962 18.75 15.6251 18.75C26.3995 18.75 36.7326 23.0301 44.3513 30.6488C51.9699 38.2675 56.2501 48.6006 56.2501 59.375C56.2501 60.2038 56.5793 60.9987 57.1653 61.5847C57.7514 62.1708 58.5462 62.5 59.3751 62.5C60.2039 62.5 60.9987 62.1708 61.5848 61.5847C62.1708 60.9987 62.5001 60.2038 62.5001 59.375C62.4682 46.9483 57.539 35.035 48.7813 26.2188Z" fill="#73DC62"/>
</svg>
