<svg width="50" height="50" viewBox="0 0 50 50" fill="none" xmlns="http://www.w3.org/2000/svg">
<path d="M25 22.3958C25.8629 22.3958 26.5625 23.0954 26.5625 23.9583V34.375C26.5625 35.2379 25.8629 35.9375 25 35.9375C24.1371 35.9375 23.4375 35.2379 23.4375 34.375V23.9583C23.4375 23.0954 24.1371 22.3958 25 22.3958Z" fill="#525252"/>
<path d="M25 18.75C26.1506 18.75 27.0833 17.8172 27.0833 16.6666C27.0833 15.5161 26.1506 14.5833 25 14.5833C23.8494 14.5833 22.9167 15.5161 22.9167 16.6666C22.9167 17.8172 23.8494 18.75 25 18.75Z" fill="#525252"/>
<path fill-rule="evenodd" clip-rule="evenodd" d="M6.77083 25C6.77083 14.9323 14.9323 6.77081 25 6.77081C35.0677 6.77081 43.2292 14.9323 43.2292 25C43.2292 35.0677 35.0677 43.2291 25 43.2291C14.9323 43.2291 6.77083 35.0677 6.77083 25ZM25 9.89581C16.6582 9.89581 9.89583 16.6582 9.89583 25C9.89583 33.3418 16.6582 40.1041 25 40.1041C33.3418 40.1041 40.1042 33.3418 40.1042 25C40.1042 16.6582 33.3418 9.89581 25 9.89581Z" fill="#525252"/>
</svg>
