<svg width="75" height="75" viewBox="0 0 75 75" fill="none" xmlns="http://www.w3.org/2000/svg">
<path d="M37.5 33.5938C38.7944 33.5938 39.8438 34.6431 39.8438 35.9375V51.5625C39.8438 52.8569 38.7944 53.9062 37.5 53.9062C36.2056 53.9062 35.1562 52.8569 35.1562 51.5625V35.9375C35.1562 34.6431 36.2056 33.5938 37.5 33.5938Z" fill="white"/>
<path d="M37.5 28.125C39.2259 28.125 40.625 26.7259 40.625 25C40.625 23.2741 39.2259 21.875 37.5 21.875C35.7741 21.875 34.375 23.2741 34.375 25C34.375 26.7259 35.7741 28.125 37.5 28.125Z" fill="white"/>
<path fill-rule="evenodd" clip-rule="evenodd" d="M10.1562 37.5C10.1562 22.3985 22.3985 10.1562 37.5 10.1562C52.6015 10.1562 64.8438 22.3985 64.8438 37.5C64.8438 52.6015 52.6015 64.8438 37.5 64.8438C22.3985 64.8438 10.1562 52.6015 10.1562 37.5ZM37.5 14.8438C24.9873 14.8438 14.8438 24.9873 14.8438 37.5C14.8438 50.0127 24.9873 60.1562 37.5 60.1562C50.0127 60.1562 60.1562 50.0127 60.1562 37.5C60.1562 24.9873 50.0127 14.8438 37.5 14.8438Z" fill="white"/>
</svg>
