<svg width="49" height="49" viewBox="0 0 49 49" fill="none" xmlns="http://www.w3.org/2000/svg">
<path d="M31.2287 14.9858C31.2624 14.2886 30.8633 13.7231 30.3853 13.4162C29.9082 13.1098 29.2196 12.9789 28.6029 13.333L28.1623 13.5859C21.4575 17.4356 15.2136 21.9145 9.50667 26.9685C8.89568 27.5096 8.92076 28.2935 9.19691 28.8347C9.47211 29.3739 10.0555 29.8262 10.7994 29.8227L18.7878 29.7844C19.7783 29.7797 20.7812 30.4145 21.2262 31.3577L24.7234 38.771C25.0382 39.4382 25.681 39.7899 26.2952 39.807C26.9204 39.8245 27.6213 39.4786 27.819 38.6841C29.6887 31.1689 30.8212 23.4113 31.2036 15.5055L31.2287 14.9858Z" fill="#525252"/>
</svg>
