<svg width="50" height="50" viewBox="0 0 50 50" fill="none" xmlns="http://www.w3.org/2000/svg">
<path d="M27.1645 7.46242C25.9156 6.81058 24.2001 6.80079 22.9424 7.45031C17.5703 10.2248 12.7022 13.4036 8.43978 16.9257C7.87139 17.3953 7.49525 18.0527 7.50169 18.8041C7.5081 19.5528 7.89278 20.2029 8.4593 20.6661C12.6874 24.1233 17.561 27.3058 22.8355 30.0587C24.0844 30.7105 25.7999 30.7203 27.0576 30.0708C32.4297 27.2963 37.2978 24.1175 41.5602 20.5954C42.1286 20.1258 42.5048 19.4684 42.4983 18.717C42.4919 17.9683 42.1072 17.3182 41.5407 16.855C37.3126 13.3978 32.439 10.2153 27.1645 7.46242Z" fill="#525252"/>
<path d="M43.6626 28.6072C44.3946 28.1502 44.6175 27.1864 44.1605 26.4544C43.7035 25.7224 42.7396 25.4994 42.0076 25.9564L29.2842 33.9C28.1508 34.6076 26.611 35.0021 24.9996 35.0022C23.3883 35.0023 21.8483 34.6079 20.7147 33.9004L8.13065 26.0468C7.39858 25.5899 6.43474 25.813 5.97785 26.5451C5.52097 27.2771 5.74405 28.241 6.47613 28.6979L19.0601 36.5515C20.7869 37.6292 22.9291 38.1273 24.9998 38.1272C27.0705 38.1271 29.2126 37.6287 30.9392 36.5508L43.6626 28.6072Z" fill="#525252"/>
<path d="M43.6627 36.4295C44.3947 35.9724 44.6175 35.0085 44.1604 34.2765C43.7033 33.5446 42.7394 33.3218 42.0075 33.7789L30.9889 40.6598C29.3788 41.6653 27.225 42.2089 24.9996 42.209C22.7742 42.2091 20.6201 41.6659 19.0097 40.6605L8.13081 33.8692C7.39879 33.4122 6.43492 33.6352 5.97795 34.3672C5.52098 35.0993 5.74395 36.0631 6.47597 36.5201L17.3548 43.3114C19.5586 44.6871 22.3149 45.3341 24.9997 45.334C27.6846 45.3338 30.4408 44.6864 32.6442 43.3104L43.6627 36.4295Z" fill="#525252"/>
</svg>
