<svg width="45" height="45" viewBox="0 0 45 45" fill="none" xmlns="http://www.w3.org/2000/svg">
<path fill-rule="evenodd" clip-rule="evenodd" d="M7.07539 16.6451C7.71972 8.82834 14.2518 2.8125 22.0951 2.8125H22.905C30.7483 2.8125 37.2804 8.82834 37.9247 16.6451C38.2716 20.8537 36.9716 25.0327 34.2985 28.3019L25.3115 39.2927C23.8584 41.0698 21.1417 41.0698 19.6886 39.2927L10.7016 28.3019C8.0285 25.0327 6.72848 20.8537 7.07539 16.6451ZM19.2188 17.9464C19.2188 16.0227 20.7249 14.5312 22.5 14.5312C24.2751 14.5312 25.7813 16.0227 25.7813 17.9464C25.7813 19.4526 24.8495 20.7071 23.5904 21.1688C22.4877 21.5732 21.0938 22.6432 21.0938 24.375C21.0938 25.1516 21.7234 25.7812 22.5 25.7812C23.2767 25.7812 23.9063 25.1516 23.9063 24.375C23.9063 24.3457 23.9138 24.2728 24.021 24.1534C24.1356 24.0259 24.3254 23.8949 24.5588 23.8093C26.9283 22.9403 28.5938 20.6295 28.5938 17.9464C28.5938 14.5446 25.9026 11.7188 22.5 11.7188C19.0974 11.7188 16.4063 14.5446 16.4063 17.9464C16.4063 18.7231 17.0358 19.3527 17.8125 19.3527C18.5892 19.3527 19.2188 18.7231 19.2188 17.9464ZM22.5 31.875C23.5355 31.875 24.375 31.0355 24.375 30C24.375 28.9645 23.5355 28.125 22.5 28.125C21.4645 28.125 20.625 28.9645 20.625 30C20.625 31.0355 21.4645 31.875 22.5 31.875Z" fill="#525252"/>
</svg>
