<svg width="45" height="45" viewBox="0 0 45 45" fill="none" xmlns="http://www.w3.org/2000/svg">
<path fill-rule="evenodd" clip-rule="evenodd" d="M7.07539 16.6451C7.71972 8.82834 14.2518 2.8125 22.0951 2.8125H22.905C30.7483 2.8125 37.2804 8.82834 37.9247 16.6451C38.2716 20.8537 36.9716 25.0327 34.2985 28.3019L25.3115 39.2927C23.8584 41.0698 21.1417 41.0698 19.6886 39.2927L10.7016 28.3019C8.0285 25.0327 6.72848 20.8537 7.07539 16.6451ZM29.1194 15.9944C29.6685 15.4452 29.6685 14.5548 29.1194 14.0056C28.5702 13.4565 27.6798 13.4565 27.1306 14.0056L21.5625 19.5738L18.8069 16.8181C18.2577 16.269 17.3673 16.269 16.8181 16.8181C16.269 17.3673 16.269 18.2577 16.8181 18.8069L20.5681 22.5569C21.1173 23.106 22.0077 23.106 22.5569 22.5569L29.1194 15.9944Z" fill="#525252"/>
</svg>
