<svg width="45" height="45" viewBox="0 0 45 45" fill="none" xmlns="http://www.w3.org/2000/svg">
<path d="M16.4063 18.75C16.4063 15.3845 19.1345 12.6562 22.5 12.6562C25.8655 12.6562 28.5938 15.3845 28.5938 18.75C28.5938 22.1155 25.8655 24.8438 22.5 24.8438C19.1345 24.8438 16.4063 22.1155 16.4063 18.75Z" fill="#525252"/>
<path fill-rule="evenodd" clip-rule="evenodd" d="M7.07539 16.6451C7.71972 8.82834 14.2518 2.8125 22.0951 2.8125H22.905C30.7483 2.8125 37.2804 8.82834 37.9247 16.6451C38.2716 20.8537 36.9716 25.0327 34.2985 28.3019L25.3115 39.2927C23.8584 41.0698 21.1417 41.0698 19.6886 39.2927L10.7016 28.3019C8.0285 25.0327 6.72848 20.8537 7.07539 16.6451ZM22.5 9.84375C17.5812 9.84375 13.5938 13.8312 13.5938 18.75C13.5938 23.6688 17.5812 27.6562 22.5 27.6562C27.4188 27.6562 31.4063 23.6688 31.4063 18.75C31.4063 13.8312 27.4188 9.84375 22.5 9.84375Z" fill="#525252"/>
</svg>
