<svg width="41" height="41" viewBox="0 0 41 41" fill="none" xmlns="http://www.w3.org/2000/svg">
<path fill-rule="evenodd" clip-rule="evenodd" d="M20.772 4.20886C16.5285 4.21242 12.4601 5.90155 9.46161 8.90465C6.46316 11.9077 4.78035 15.9788 4.78337 20.2223C4.78486 22.3234 5.20019 24.4037 6.00565 26.3442C6.8111 28.2847 7.9909 30.0476 9.4777 31.5321C10.9645 33.0165 12.7292 34.1936 14.6709 34.9961C16.6127 35.7985 18.6936 36.2106 20.7947 36.2089C22.8959 36.2071 24.9762 35.7915 26.9168 34.9858C28.8574 34.1801 30.6204 33 32.1051 31.5131C33.5898 30.0261 34.7671 28.2613 35.5698 26.3194C36.3725 24.3775 36.7848 22.2966 36.7833 20.1954C36.7803 15.952 35.0917 11.8837 32.089 8.88565C29.0863 5.88759 25.0154 4.2053 20.772 4.20886ZM6.63117 6.07859C10.3792 2.32472 15.4648 0.213312 20.7691 0.20886C26.0735 0.204408 31.162 2.30727 34.9154 6.05485C38.6688 9.80243 40.7796 14.8877 40.7833 20.1921C40.7852 22.8185 40.2697 25.4197 39.2664 27.847C38.263 30.2744 36.7914 32.4804 34.9355 34.3391C33.0797 36.1978 30.8759 37.6729 28.4501 38.68C26.0244 39.6871 23.424 40.2066 20.7976 40.2089C18.1711 40.2111 15.5701 39.6959 13.1428 38.6929C10.7156 37.6898 8.50977 36.2185 6.65128 34.3629C4.79279 32.5072 3.31804 30.3037 2.31122 27.878C1.3044 25.4524 0.785238 22.8521 0.783371 20.2256C0.779599 14.9213 2.88312 9.83247 6.63117 6.07859ZM20.7777 12.2089C17.8338 12.2113 15.7224 13.6257 15.0449 15.0662C14.5747 16.0658 13.3833 16.4951 12.3838 16.0251C11.3843 15.5551 10.9552 14.3637 11.4253 13.3641C12.9404 10.1429 16.7506 8.21224 20.7748 8.20886C23.3755 8.20667 25.807 8.99236 27.6339 10.3604C29.4615 11.729 30.7788 13.7732 30.7805 16.2005C30.7834 20.3407 27.1161 23.2198 23.1514 23.9849C23.0054 24.0131 22.8894 24.0853 22.8268 24.1516C22.7985 24.1816 22.7887 24.2019 22.7865 24.2071C22.7864 24.2074 22.7866 24.2068 22.7865 24.2071C22.7869 25.3113 21.892 26.2079 20.7876 26.2089C19.683 26.2098 18.787 25.3151 18.7862 24.2105C18.7846 21.9234 20.6048 20.4023 22.3944 20.0573C25.3403 19.4886 26.7815 17.6635 26.7805 16.2038C26.7799 15.3171 26.305 14.3628 25.236 13.5623C24.1664 12.7613 22.5969 12.2073 20.7777 12.2089ZM18.7905 30.2105C18.7897 29.106 19.6845 28.2098 20.789 28.2089L20.809 28.2088C21.9136 28.2079 22.8097 29.1026 22.8105 30.2072C22.8112 31.3117 21.9165 32.2079 20.8119 32.2088L20.7919 32.2089C19.6873 32.2098 18.7912 31.3151 18.7905 30.2105Z" fill="#525252"/>
</svg>
