<svg width="50" height="50" viewBox="0 0 50 50" fill="none" xmlns="http://www.w3.org/2000/svg">
<path fill-rule="evenodd" clip-rule="evenodd" d="M29.9689 32.1786C24.4475 36.6008 16.3654 36.2528 11.2471 31.1345C5.75533 25.6427 5.75533 16.7389 11.2471 11.2471C16.7388 5.75536 25.6427 5.75536 31.1345 11.2471C36.2528 16.3654 36.6008 24.4475 32.1786 29.9689L42.9195 40.7098C43.5297 41.32 43.5297 42.3093 42.9195 42.9195C42.3093 43.5297 41.32 43.5297 40.7098 42.9195L29.9689 32.1786ZM14.4792 21.25C14.4792 20.3871 15.1787 19.6875 16.0417 19.6875H19.6875V16.0417C19.6875 15.1788 20.3871 14.4792 21.25 14.4792C22.113 14.4792 22.8125 15.1788 22.8125 16.0417V19.6875H26.4584C27.3213 19.6875 28.0209 20.3871 28.0209 21.25C28.0209 22.113 27.3213 22.8125 26.4584 22.8125H22.8125V26.4584C22.8125 27.3213 22.113 28.0209 21.25 28.0209C20.3871 28.0209 19.6875 27.3213 19.6875 26.4584V22.8125H16.0417C15.1787 22.8125 14.4792 22.113 14.4792 21.25Z" fill="#525252"/>
</svg>
