<svg width="50" height="50" viewBox="0 0 50 50" fill="none" xmlns="http://www.w3.org/2000/svg">
<path fill-rule="evenodd" clip-rule="evenodd" d="M11.247 31.1345C16.3653 36.2528 24.4475 36.6008 29.9689 32.1786L40.7098 42.9195C41.32 43.5297 42.3093 43.5297 42.9195 42.9195C43.5297 42.3093 43.5297 41.32 42.9195 40.7098L32.1786 29.9689C36.6008 24.4475 36.2527 16.3654 31.1344 11.2471C25.6427 5.75536 16.7388 5.75536 11.247 11.2471C5.7553 16.7389 5.7553 25.6427 11.247 31.1345ZM16.0417 19.6876C15.1787 19.6876 14.4792 20.3871 14.4792 21.2501C14.4792 22.113 15.1787 22.8126 16.0417 22.8126H26.4583C27.3213 22.8126 28.0208 22.113 28.0208 21.2501C28.0208 20.3871 27.3213 19.6876 26.4583 19.6876H16.0417Z" fill="#525252"/>
</svg>
